<?xml version="1.0" encoding="UTF-8" standalone="no"?>
<svg
   xmlns:dc="http://purl.org/dc/elements/1.1/"
   xmlns:cc="http://creativecommons.org/ns#"
   xmlns:rdf="http://www.w3.org/1999/02/22-rdf-syntax-ns#"
   xmlns:svg="http://www.w3.org/2000/svg"
   xmlns="http://www.w3.org/2000/svg"
   xmlns:sodipodi="http://sodipodi.sourceforge.net/DTD/sodipodi-0.dtd"
   xmlns:inkscape="http://www.inkscape.org/namespaces/inkscape"
   width="187.40837mm"
   height="42.990791mm"
   viewBox="0 0 187.40837 42.990791"
   version="1.1"
   id="svg8"
   inkscape:version="1.0.1 (3bc2e813f5, 2020-09-07)"
   sodipodi:docname="HolidayMakerLogoV2.5.2-lightcoral.svg"
   inkscape:export-filename="C:\Users\danie.DESKTOP-SSQL082\Desktop\Logo\V2\HolidayMakerLogoV2.4.1-lightcoral.png"
   inkscape:export-xdpi="96"
   inkscape:export-ydpi="96">
  <defs
     id="defs2">
    <rect
       x="421.06549"
       y="78.619049"
       width="260.04761"
       height="33.261906"
       id="rect1973" />
  </defs>
  <sodipodi:namedview
     id="base"
     pagecolor="#ffffff"
     bordercolor="#666666"
     borderopacity="1.0"
     inkscape:pageopacity="0.0"
     inkscape:pageshadow="2"
     inkscape:zoom="0.49497475"
     inkscape:cx="1023.2186"
     inkscape:cy="476.28129"
     inkscape:document-units="mm"
     inkscape:current-layer="layer1"
     inkscape:document-rotation="0"
     showgrid="false"
     inkscape:window-width="1920"
     inkscape:window-height="1051"
     inkscape:window-x="0"
     inkscape:window-y="0"
     inkscape:window-maximized="0"
     inkscape:pagecheckerboard="false"
     fit-margin-top="2"
     fit-margin-left="2"
     fit-margin-right="2"
     fit-margin-bottom="2" />
  <metadata
     id="metadata5">
    <rdf:RDF>
      <cc:Work
         rdf:about="">
        <dc:format>image/svg+xml</dc:format>
        <dc:type
           rdf:resource="http://purl.org/dc/dcmitype/StillImage" />
        <dc:title></dc:title>
      </cc:Work>
    </rdf:RDF>
  </metadata>
  <g
     inkscape:label="Lager 1"
     inkscape:groupmode="layer"
     id="layer1"
     transform="translate(-10.916091,-9.295432)">
    <path
       style="fill:#f08080;fill-opacity:1;stroke-width:0.0507368"
       d="m 57.325411,50.130542 c -0.079,-0.0871 -0.14126,-0.21303 -0.14126,-0.28578 0,-0.16963 0.15961,-0.38991 0.31336,-0.43244 l 0.12158,-0.0337 v -11.68793 -11.68792 l 0.11663,-0.14946 0.11664,-0.14945 7.07208,-0.014 c 5.36814,-0.0106 7.10555,10e-4 7.21094,0.0491 0.28915,0.13153 0.27194,-0.62964 0.27194,12.02929 v 11.61505 l 0.11829,0.0496 c 0.28796,0.12068 0.3369,0.53118 0.089,0.74614 -0.12267,0.10636 -0.18164,0.10718 -7.63576,0.10718 h -7.51213 z m 6.04466,-2.33986 c 0,-0.97291 0.0197,-1.65229 0.0507,-1.75044 0.0279,-0.0882 0.10505,-0.18768 0.17142,-0.22101 0.0808,-0.0406 0.55707,-0.0606 1.44091,-0.0606 1.26245,0 1.32578,0.005 1.44755,0.11039 l 0.12734,0.1104 v 1.70065 1.70066 h 2.48886 2.48887 v -11.39896 -11.39894 h -6.59671 -6.59671 v 11.39894 11.39896 h 2.48887 2.48887 z m -3.89929,0.57761 c -0.1875,-0.0833 -0.20855,-0.21488 -0.20855,-1.30357 0,-1.04299 0,-1.04482 0.12071,-1.17766 l 0.12072,-0.13305 1.40593,0.0156 1.40593,0.0156 0.0923,0.12575 c 0.0837,0.11407 0.0923,0.22121 0.0923,1.15417 0,0.56565 -0.0135,1.06724 -0.03,1.11467 -0.0756,0.21705 -0.24427,0.24224 -1.59863,0.2387 -0.71235,-0.002 -1.34268,-0.0245 -1.40075,-0.0503 z m 2.25615,-1.27802 v -0.47939 h -0.84573 -0.84573 v 0.47939 0.4794 h 0.84573 0.84573 z m 5.92664,1.22126 -0.12734,-0.1104 v -1.11086 -1.11086 l 0.12995,-0.11265 c 0.1265,-0.10968 0.16689,-0.11225 1.52664,-0.0971 l 1.39671,0.0156 0.0923,0.12575 c 0.084,0.11442 0.0922,0.22001 0.0908,1.17186 -0.001,0.73824 -0.0188,1.07097 -0.0604,1.13061 -0.1349,0.19364 -0.24824,0.20845 -1.59566,0.20845 -1.26797,0 -1.33122,-0.005 -1.45301,-0.1104 z m 2.33737,-1.22126 v -0.47939 h -0.84573 -0.84573 v 0.47939 0.4794 h 0.84573 0.84573 z m -10.51124,-2.35195 c -0.20827,-0.12556 -0.21747,-0.18045 -0.21747,-1.29767 0,-1.0522 0.002,-1.07469 0.11185,-1.18831 0.10955,-0.11344 0.14076,-0.11582 1.51881,-0.11582 h 1.40695 l 0.10017,0.14035 c 0.0933,0.1307 0.10016,0.20931 0.10016,1.14272 0,1.06751 -0.0262,1.22122 -0.22507,1.3211 -0.1604,0.0805 -2.66137,0.0784 -2.7954,-0.003 z m 2.23703,-1.28346 0.014,-0.46608 h -0.84761 -0.84761 v 0.44388 c 0,0.24414 0.015,0.46043 0.0333,0.48064 0.0183,0.0202 0.39348,0.0302 0.83365,0.0222 l 0.8003,-0.0145 z m 1.89593,1.27783 c -0.21302,-0.12107 -0.24111,-0.26547 -0.24188,-1.24325 -5.8e-4,-0.94457 0.0388,-1.20893 0.1945,-1.30078 0.0517,-0.0305 0.6579,-0.0522 1.46048,-0.0522 1.37175,0 1.37212,3e-5 1.47718,0.12328 0.10067,0.11813 0.10507,0.16802 0.10507,1.19259 0,0.97319 -0.008,1.08061 -0.0923,1.19505 l -0.0923,0.12575 -1.34542,0.0138 c -1.01847,0.0105 -1.37456,-0.003 -1.46529,-0.0543 z m 2.2122,-0.83051 c 0.0448,-0.0313 0.0585,-0.16403 0.0483,-0.46527 l -0.0143,-0.4215 -0.85781,-0.0145 -0.85781,-0.0145 v 0.44511 c 0,0.24481 0.0145,0.46109 0.0322,0.48062 0.0466,0.0513 1.57488,0.0421 1.64934,-0.01 z m 1.90993,0.84524 c -0.18798,-0.0857 -0.20856,-0.21586 -0.20856,-1.31972 0,-1.03865 0.002,-1.06183 0.11186,-1.17536 0.10948,-0.11337 0.14126,-0.11582 1.50035,-0.11582 h 1.38849 l 0.11863,0.13075 c 0.11783,0.12987 0.11862,0.13768 0.11862,1.16888 0,1.02044 -0.002,1.04069 -0.11657,1.18759 l -0.11657,0.14945 -1.34534,0.0111 c -0.73993,0.006 -1.39285,-0.0105 -1.45091,-0.0369 z m 2.24595,-1.29256 0.014,-0.46608 h -0.84762 -0.84761 v 0.44388 c 0,0.24414 0.015,0.46043 0.0333,0.48064 0.0183,0.0202 0.39348,0.0302 0.83365,0.0222 l 0.8003,-0.0145 z m -10.59117,-2.44079 -0.12734,-0.1104 v -1.0571 c 0,-0.58141 0.0135,-1.0959 0.03,-1.14333 0.0752,-0.21608 0.24595,-0.24208 1.58973,-0.24208 1.30671,0 1.42178,0.0154 1.55624,0.20845 0.0416,0.0597 0.0593,0.39415 0.0604,1.13894 0.002,1.04953 10e-4,1.05504 -0.11709,1.18517 l -0.11862,0.13075 h -1.37302 c -1.31586,0 -1.37831,-0.004 -1.50034,-0.1104 z m 2.32716,-1.20794 -0.014,-0.46608 -0.83365,-0.0146 -0.83365,-0.0146 v 0.48065 0.48065 h 0.84761 0.84761 z m 1.80101,1.21478 c -0.13586,-0.14975 -0.15612,-0.35026 -0.13891,-1.37445 0.0214,-1.2721 -0.13917,-1.15867 1.63999,-1.15867 h 1.40442 l 0.0924,0.12575 c 0.0841,0.11454 0.0924,0.2217 0.0924,1.20252 0,1.05666 -0.002,1.07893 -0.11185,1.19259 -0.10947,0.11335 -0.14132,0.11582 -1.49815,0.11582 -1.30862,0 -1.39158,-0.006 -1.48027,-0.10356 z m 2.34119,-1.2281 v -0.45276 h -0.84572 -0.84574 l -0.014,0.46731 -0.014,0.46732 0.85971,-0.0145 0.85971,-0.0145 z m 1.77238,1.20837 c -0.10068,-0.11812 -0.10508,-0.16801 -0.10508,-1.19258 0,-0.97347 0.008,-1.08058 0.0924,-1.19506 l 0.0924,-0.12575 h 1.40187 1.40188 l 0.12471,0.12913 0.12471,0.12914 v 1.05846 c 0,1.05277 -5.7e-4,1.05916 -0.11862,1.1892 l -0.11863,0.13075 h -1.39527 -1.39527 z m 2.34943,-1.19505 -0.014,-0.46608 -0.83365,-0.0146 -0.83365,-0.0146 v 0.48065 0.48065 h 0.84761 0.84762 z m -10.5978,-2.4322 -0.12071,-0.13305 v -1.07016 c 0,-1.06521 5.3e-4,-1.07078 0.11862,-1.20091 l 0.11862,-0.13075 h 1.38173 1.38173 l 0.11862,0.13075 c 0.11801,0.13006 0.11862,0.13621 0.11862,1.19258 0,0.96586 -0.008,1.07321 -0.0923,1.18759 l -0.0923,0.12575 -1.40593,0.0156 -1.40593,0.0156 z m 2.33379,-1.21653 0.014,-0.46608 h -0.84761 -0.84761 v 0.48065 0.48065 l 0.83365,-0.0146 0.83365,-0.0146 z m 1.8131,1.21642 -0.1356,-0.12856 v -1.06564 c 0,-1.05451 0.001,-1.06708 0.11716,-1.2031 l 0.11716,-0.13746 h 1.3624 c 1.30512,0 1.36775,0.004 1.48972,0.1104 l 0.12734,0.1104 v 1.11086 1.11085 l -0.12734,0.1104 c -0.12188,0.10568 -0.18482,0.1104 -1.47129,0.1104 h -1.34396 z m 2.3291,-1.2031 v -0.45277 l -0.85781,-0.0145 -0.85781,-0.0145 v 0.44511 c 0,0.24481 0.015,0.46164 0.0333,0.48184 0.0183,0.0202 0.40435,0.0302 0.85782,0.0222 l 0.82449,-0.0145 z m 1.79464,1.22125 -0.12734,-0.1104 v -1.11085 -1.11086 l 0.12734,-0.1104 c 0.12199,-0.10577 0.18459,-0.1104 1.49156,-0.1104 h 1.36423 l 0.12741,0.14043 0.12741,0.14043 v 1.02707 c 0,0.56488 -0.0135,1.06587 -0.03,1.11329 -0.0756,0.2171 -0.24363,0.24209 -1.62837,0.24209 -1.26718,0 -1.33044,-0.005 -1.45222,-0.1104 z m 2.32717,-1.23457 0.014,-0.46608 h -0.84762 -0.84761 v 0.48065 0.48065 l 0.83365,-0.0146 0.83365,-0.0146 z m -10.61344,-2.45368 c -0.10056,-0.11798 -0.10507,-0.16848 -0.10507,-1.17536 0,-0.58439 0.021,-1.09538 0.0473,-1.14949 0.026,-0.0536 0.11625,-0.12392 0.20052,-0.1563 0.20139,-0.0774 2.53434,-0.0799 2.7346,-0.003 0.2295,0.0882 0.25551,0.22303 0.25551,1.32432 0,0.93342 -0.007,1.01203 -0.10016,1.14272 l -0.10016,0.14035 h -1.41373 -1.41374 z m 2.34943,-1.19506 -0.014,-0.46607 h -0.82157 -0.82157 l -0.014,0.46607 -0.014,0.46609 h 0.8495 0.84949 z m 1.80101,1.21478 c -0.13586,-0.14974 -0.15612,-0.35025 -0.13891,-1.37444 0.0214,-1.2721 -0.13917,-1.15867 1.63999,-1.15867 h 1.40442 l 0.0924,0.12575 c 0.0841,0.11454 0.0924,0.2217 0.0924,1.20252 0,1.05666 -0.002,1.07893 -0.11185,1.19259 -0.10947,0.11335 -0.14132,0.11581 -1.49815,0.11581 -1.30862,0 -1.39158,-0.006 -1.48027,-0.10356 z m 2.35521,-1.21323 c 0.0171,-0.53399 0.0767,-0.5039 -0.9564,-0.48287 l -0.74908,0.0152 -0.014,0.46732 -0.014,0.46731 0.85971,-0.0145 0.85971,-0.0145 z m 1.75836,1.19351 c -0.10068,-0.11812 -0.10508,-0.16802 -0.10508,-1.19258 0,-0.97347 0.008,-1.08058 0.0924,-1.19506 l 0.0924,-0.12575 h 1.40995 1.40995 l 0.11664,0.14946 c 0.11467,0.14692 0.11663,0.16696 0.11663,1.18758 0,1.03121 -5.7e-4,1.03902 -0.11862,1.16889 l -0.11863,0.13074 h -1.39527 -1.39527 z m 2.34943,-1.19506 -0.014,-0.46607 h -0.82156 -0.82158 l -0.014,0.46607 -0.014,0.46609 h 0.84949 0.8495 z m -10.59989,-2.43449 c -0.11801,-0.13008 -0.11862,-0.13622 -0.11862,-1.19259 0,-0.96583 0.008,-1.07321 0.0923,-1.18759 l 0.0923,-0.12575 1.32097,-0.0159 c 0.72652,-0.009 1.37057,-0.002 1.43122,0.0147 0.0607,0.0168 0.1532,0.0778 0.20569,0.13568 0.0887,0.0977 0.0954,0.18079 0.0954,1.17292 0,1.06264 -5.7e-4,1.06837 -0.11862,1.19849 l -0.11862,0.13074 h -1.38173 -1.38173 z m 2.34608,-1.20091 v -0.4794 h -0.84573 -0.84573 v 0.4794 0.47939 h 0.84573 0.84573 z m 1.84821,1.26649 c -0.17608,-0.0936 -0.21367,-0.35952 -0.19661,-1.39107 l 0.0157,-0.95021 0.13804,-0.13074 0.13803,-0.13075 1.37654,0.0156 1.37653,0.0156 0.0923,0.12575 c 0.0841,0.11456 0.0923,0.22206 0.0923,1.20794 v 1.08218 l -0.12734,0.1104 c -0.12209,0.10585 -0.18233,0.11025 -1.46191,0.1068 -0.85597,-0.003 -1.37368,-0.0244 -1.44362,-0.0616 z m 2.28379,-1.26649 v -0.45276 h -0.84572 -0.84574 l -0.014,0.46731 -0.014,0.46732 0.85971,-0.0145 0.85971,-0.0145 z m 1.79725,1.22351 -0.12995,-0.11266 v -1.08218 c 0,-0.98586 0.008,-1.09338 0.0923,-1.20794 l 0.0923,-0.12575 1.32097,-0.0159 c 0.72653,-0.009 1.36943,-0.003 1.42866,0.014 0.0592,0.0164 0.15179,0.082 0.20568,0.14573 0.0916,0.10832 0.098,0.18478 0.098,1.1653 0,0.95359 -0.008,1.06086 -0.0923,1.17513 l -0.0923,0.12575 -1.39671,0.0156 c -1.35975,0.0152 -1.40014,0.0126 -1.52664,-0.0971 z m 2.32456,-1.21019 -0.014,-0.46608 -0.83365,-0.0146 -0.83365,-0.0146 v 0.48065 0.48065 h 0.84761 0.84762 z m -4.12181,19.10922 v -1.35829 h -0.84572 -0.84574 l -0.0129,1.37284 -0.0129,1.37283 0.85864,-0.0145 0.85862,-0.0145 z m -52.94281,0.66582 v -1.51808 h 21.72323 21.72322 v 1.51808 1.51809 h -21.72322 -21.72323 z m 0,-20.57404 v -16.79215 h 3.45542 3.45542 v 6.73817 6.73817 h 6.98333 6.98333 v -6.73817 -6.73817 h 3.46741 3.46741 l 4.81114,5.3026 4.81114,5.30259 4.57485,-5.04958 4.57485,-5.04958 3.52963,-0.0147 3.52963,-0.0147 v 6.41992 6.41991 h -3.45445 -3.45446 l -0.0131,-1.12737 -0.0131,-1.12739 -4.63944,5.09551 -4.63944,5.0955 -4.78452,-5.27314 c -2.63148,-2.90023 -4.80078,-5.27315 -4.82067,-5.27315 -0.0199,0 -0.0361,5.14751 -0.0361,11.4389 v 11.43891 h -3.45545 -3.45542 v -6.19219 -6.19219 h -6.98327 -6.98333 v 6.19219 6.19219 h -3.45542 -3.45542 z"
       id="path24"
       inkscape:export-xdpi="96"
       inkscape:export-ydpi="96" />
    <text
       xml:space="preserve"
       style="font-style:normal;font-weight:normal;font-size:42.3333px;line-height:1.25;font-family:sans-serif;letter-spacing:1.94204px;word-spacing:0.0211667px;fill:#f08080;fill-opacity:1;stroke:none;stroke-width:0.264583"
       x="177.64882"
       y="150.43451"
       id="text841"
       inkscape:export-xdpi="96"
       inkscape:export-ydpi="96"><tspan
         sodipodi:role="line"
         id="tspan839"
         x="177.64882"
         y="150.43451"
         style="font-style:normal;font-variant:normal;font-weight:normal;font-stretch:condensed;font-size:42.3333px;font-family:Impact;-inkscape-font-specification:'Impact Condensed';fill:#f08080;fill-opacity:1;stroke-width:0.264583"
         rotate="0" /></text>
    <g
       aria-label="Holidaymaker.com"
       transform="matrix(0.57079756,0,0,0.62912768,-162.11525,-28.182393)"
       id="text1971"
       style="font-style:normal;font-variant:normal;font-weight:bold;font-stretch:normal;font-size:28.2222px;line-height:1.25;font-family:'Cambria Math';-inkscape-font-specification:'Cambria Math Bold';white-space:pre;shape-inside:url(#rect1973);fill:#f08080;fill-opacity:1;stroke:none">
      <path
         d="m 436.08062,85.811061 h 2.59644 v 18.287989 h -2.59644 v -8.212663 h -10.10355 v 8.212663 h -2.59644 V 85.811061 h 2.59644 v 7.873994 h 10.10355 z"
         style="font-style:normal;font-variant:normal;font-weight:normal;font-stretch:normal;font-family:Dubai;-inkscape-font-specification:Dubai"
         id="path1983" />
      <path
         d="m 447.9057,104.43771 q -1.97555,0 -3.302,-0.84666 -1.32644,-0.87489 -1.97555,-2.34245 -0.64911,-1.495772 -0.64911,-3.358437 0,-2.257776 0.84667,-3.697108 0.84666,-1.467555 2.28599,-2.116665 1.43934,-0.677333 3.27378,-0.677333 1.97555,0 3.302,0.874888 1.32644,0.846666 1.97555,2.314221 0.64911,1.467554 0.64911,3.330219 0,2.285995 -0.84666,3.753555 -0.84667,1.43933 -2.286,2.11666 -1.43934,0.64911 -3.27378,0.64911 z m 0.22578,-1.97555 q 3.64066,0 3.64066,-4.571997 0,-2.060221 -0.90311,-3.273775 -0.87489,-1.241777 -2.65288,-1.241777 -1.97556,0 -2.85045,1.213555 -0.84666,1.185332 -0.84666,3.301997 0,2.088443 0.90311,3.330217 0.90311,1.24178 2.70933,1.24178 z"
         style="font-style:normal;font-variant:normal;font-weight:normal;font-stretch:normal;font-family:Dubai;-inkscape-font-specification:Dubai"
         id="path1985" />
      <path
         d="M 457.27547,104.09905 V 84.682173 l 2.42711,-0.282222 v 19.699099 z"
         style="font-style:normal;font-variant:normal;font-weight:normal;font-stretch:normal;font-family:Dubai;-inkscape-font-specification:Dubai"
         id="path1987" />
      <path
         d="m 464.83902,89.225948 q -0.45156,0 -0.84667,-0.225778 -0.39511,-0.254 -0.64911,-0.649111 -0.22578,-0.39511 -0.22578,-0.846666 0,-0.479777 0.22578,-0.874888 0.254,-0.395111 0.64911,-0.620888 0.39511,-0.254 0.84667,-0.254 0.47977,0 0.87489,0.254 0.39511,0.225777 0.62088,0.620888 0.254,0.395111 0.254,0.874888 0,0.451556 -0.254,0.846666 -0.22577,0.395111 -0.62088,0.649111 -0.39512,0.225778 -0.87489,0.225778 z m -1.18533,14.873102 V 91.737723 l 2.4271,-0.282222 v 12.643549 z"
         style="font-style:normal;font-variant:normal;font-weight:normal;font-stretch:normal;font-family:Dubai;-inkscape-font-specification:Dubai"
         id="path1989" />
      <path
         d="m 480.53056,84.399951 v 19.699099 h -2.20134 l -0.11288,-0.90311 q -1.016,0.59266 -2.06023,0.90311 -1.04422,0.33866 -1.94733,0.33866 -1.63688,0 -2.794,-0.73377 -1.15711,-0.762 -1.77799,-2.14489 -0.59267,-1.41111 -0.59267,-3.301998 0,-2.144888 0.81844,-3.697109 0.84667,-1.552221 2.286,-2.342442 1.43933,-0.818444 3.27378,-0.818444 1.21355,0 2.68111,0.366889 v -7.083773 z m -8.89,13.800656 q 0,2.116663 0.84667,3.132663 0.84666,1.016 2.39889,1.016 1.63688,0 3.21733,-0.93133 V 93.7415 q -1.27,-0.423333 -2.48356,-0.423333 -1.15711,0 -2.06022,0.536221 -0.87489,0.508 -1.41111,1.608666 -0.508,1.100666 -0.508,2.737553 z"
         style="font-style:normal;font-variant:normal;font-weight:normal;font-stretch:normal;font-family:Dubai;-inkscape-font-specification:Dubai"
         id="path1991" />
      <path
         d="m 489.53341,91.399057 q 2.17311,0 3.24556,0.987777 1.10066,0.987777 1.10066,3.104442 v 8.607774 h -2.20133 l -0.14111,-1.07245 q -1.94733,1.41111 -4.48733,1.41111 -1.07244,0 -1.91911,-0.39511 -0.84667,-0.42333 -1.32644,-1.15711 -0.45156,-0.762 -0.45156,-1.72155 0,-1.552223 1.10067,-2.568222 1.10066,-1.044221 2.93511,-1.523999 1.83444,-0.479777 4.06399,-0.536222 v -0.620888 q 0,-1.269999 -0.508,-1.834443 -0.508,-0.592666 -1.72155,-0.592666 -2.06022,0 -4.28978,1.467554 l -1.07244,-1.693332 q 2.70933,-1.862665 5.67266,-1.862665 z m -3.58422,9.510883 q 0,0.73378 0.42334,1.10066 0.45155,0.36689 1.32644,0.36689 1.91911,0 3.75355,-1.12889 v -2.935104 q -2.45533,0.112889 -3.97933,0.761999 -1.524,0.649111 -1.524,1.834445 z"
         style="font-style:normal;font-variant:normal;font-weight:normal;font-stretch:normal;font-family:Dubai;-inkscape-font-specification:Dubai"
         id="path1993" />
      <path
         d="m 507.68021,91.737723 v 0.169334 l -4.71311,13.066883 q -0.62089,1.72155 -1.32644,2.73755 -0.70556,1.04422 -1.60867,1.49578 -0.87488,0.47977 -2.08844,0.47977 -1.24178,0 -2.45533,-0.42333 l 0.64911,-1.86267 q 0.81844,0.254 1.60867,0.254 0.64911,0 1.10066,-0.19755 0.45156,-0.19756 0.87489,-0.762 0.45156,-0.56444 0.87489,-1.69333 l 0.33866,-0.90311 h -0.64911 l -4.74133,-12.191993 v -0.169334 h 2.56822 l 2.90689,7.902216 0.31045,0.846671 0.45155,1.32644 0.70556,-2.173111 2.70933,-7.902216 z"
         style="font-style:normal;font-variant:normal;font-weight:normal;font-stretch:normal;font-family:Dubai;-inkscape-font-specification:Dubai"
         id="path1995" />
      <path
         d="m 524.3313,91.399057 q 1.60867,0 2.56822,0.90311 0.95956,0.903111 0.95956,2.935109 v 8.861774 h -2.42711 v -7.873997 q 0,-1.044221 -0.19756,-1.608665 -0.19755,-0.592666 -0.62089,-0.846666 -0.42333,-0.254 -1.18533,-0.254 -0.81844,0 -1.72155,0.254 -0.90311,0.225777 -1.69333,0.620888 0.0564,0.564444 0.0564,0.846666 v 8.861774 h -2.42711 v -7.873997 q 0,-1.044221 -0.19755,-1.608665 -0.16934,-0.592666 -0.59267,-0.846666 -0.42333,-0.254 -1.18533,-0.254 -0.79022,0 -1.66511,0.254 -0.87489,0.225777 -1.66511,0.592666 v 9.736662 h -2.42711 V 91.737723 l 2.42711,-0.282222 v 1.185333 q 2.17311,-1.241777 4.23333,-1.241777 2.08844,0 2.93511,1.382888 1.016,-0.592666 2.28599,-0.987777 1.29823,-0.395111 2.54,-0.395111 z"
         style="font-style:normal;font-variant:normal;font-weight:normal;font-stretch:normal;font-family:Dubai;-inkscape-font-specification:Dubai"
         id="path1997" />
      <path
         d="m 536.72085,91.399057 q 2.17311,0 3.24555,0.987777 1.10067,0.987777 1.10067,3.104442 v 8.607774 h -2.20134 l -0.14111,-1.07245 q -1.94733,1.41111 -4.48733,1.41111 -1.07244,0 -1.91911,-0.39511 -0.84666,-0.42333 -1.32644,-1.15711 -0.45155,-0.762 -0.45155,-1.72155 0,-1.552223 1.10066,-2.568222 1.10067,-1.044221 2.93511,-1.523999 1.83444,-0.479777 4.064,-0.536222 v -0.620888 q 0,-1.269999 -0.508,-1.834443 -0.508,-0.592666 -1.72156,-0.592666 -2.06022,0 -4.28977,1.467554 l -1.07244,-1.693332 q 2.70933,-1.862665 5.67266,-1.862665 z m -3.58422,9.510883 q 0,0.73378 0.42333,1.10066 0.45156,0.36689 1.32644,0.36689 1.91911,0 3.75356,-1.12889 v -2.935104 q -2.45533,0.112889 -3.97933,0.761999 -1.524,0.649111 -1.524,1.834445 z"
         style="font-style:normal;font-variant:normal;font-weight:normal;font-stretch:normal;font-family:Dubai;-inkscape-font-specification:Dubai"
         id="path1999" />
      <path
         d="m 550.09813,97.495052 5.39044,6.434658 v 0.16934 h -2.96333 l -5.22111,-6.462887 v 6.462887 h -2.42711 V 84.682173 l 2.42711,-0.282222 v 13.038657 l 5.24933,-5.700885 h 2.68111 v 0.169334 z"
         style="font-style:normal;font-variant:normal;font-weight:normal;font-stretch:normal;font-family:Dubai;-inkscape-font-specification:Dubai"
         id="path2001" />
      <path
         d="m 567.4547,98.341718 h -8.60777 q 0.0282,2.116662 1.016,3.076222 1.016,0.95955 2.59644,0.95955 1.12889,0 1.94734,-0.28222 0.84666,-0.28222 1.86266,-0.87489 l 0.93133,1.72156 q -2.31422,1.49577 -4.85421,1.49577 -2.70934,0 -4.34622,-1.49577 -1.60867,-1.524 -1.60867,-4.797777 0,-1.862665 0.67733,-3.386664 0.67734,-1.523999 2.00378,-2.427109 1.35467,-0.931333 3.302,-0.931333 1.63688,0 2.794,0.677333 1.15711,0.64911 1.74977,1.806221 0.59267,1.15711 0.59267,2.652886 z m -5.07999,-5.051774 q -1.46756,0 -2.31422,0.874889 -0.81845,0.874888 -1.07245,2.398887 h 6.15244 v -0.112889 q 0,-1.580443 -0.73377,-2.370665 -0.70556,-0.790222 -2.032,-0.790222 z"
         style="font-style:normal;font-variant:normal;font-weight:normal;font-stretch:normal;font-family:Dubai;-inkscape-font-specification:Dubai"
         id="path2003" />
      <path
         d="m 576.51399,91.399057 q 0.47978,0 0.87489,0.05644 0.39511,0.05644 0.84667,0.169334 l -0.45156,2.511775 q -0.95955,-0.338666 -1.74978,-0.338666 -0.90311,0 -1.66511,0.395111 -0.762,0.395111 -1.46755,1.495776 v 8.410223 h -2.42711 V 91.709501 l 2.42711,-0.254 V 93.2335 q 0.70555,-0.90311 1.63689,-1.354666 0.93133,-0.479777 1.97555,-0.479777 z"
         style="font-style:normal;font-variant:normal;font-weight:normal;font-stretch:normal;font-family:Dubai;-inkscape-font-specification:Dubai"
         id="path2005" />
      <path
         d="m 581.00129,104.32482 q -0.45156,0 -0.79022,-0.31044 -0.31045,-0.33867 -0.31045,-0.79022 0,-0.45156 0.31045,-0.762 0.33866,-0.33867 0.79022,-0.33867 0.45155,0 0.79022,0.33867 0.33866,0.31044 0.33866,0.762 0,0.45155 -0.33866,0.79022 -0.33867,0.31044 -0.79022,0.31044 z"
         style="font-style:normal;font-variant:normal;font-weight:300;font-stretch:normal;font-family:Dubai;-inkscape-font-specification:'Dubai Light'"
         id="path2007" />
      <path
         d="m 589.609,104.40949 q -1.66511,0 -2.87867,-0.70555 -1.21355,-0.73378 -1.86266,-2.08845 -0.64911,-1.38288 -0.64911,-3.301994 0,-2.229554 0.84666,-3.72533 0.87489,-1.495777 2.20134,-2.201332 1.35466,-0.705555 2.82222,-0.705555 1.80622,0 3.66888,0.987777 l -0.53622,1.128888 q -0.90311,-0.423333 -1.69333,-0.620888 -0.762,-0.225778 -1.55222,-0.225778 -1.29822,0 -2.25778,0.677333 -0.93133,0.677333 -1.43933,1.890887 -0.508,1.213555 -0.508,2.793998 0,4.797774 4.00755,4.797774 1.016,0 1.91911,-0.31044 0.90311,-0.31045 1.80622,-0.90311 l 0.62089,1.07244 q -2.032,1.43933 -4.51555,1.43933 z"
         style="font-style:normal;font-variant:normal;font-weight:300;font-stretch:normal;font-family:Dubai;-inkscape-font-specification:'Dubai Light'"
         id="path2009" />
      <path
         d="m 601.43407,104.40949 q -1.83445,0 -3.10445,-0.84666 -1.26999,-0.84667 -1.91911,-2.286 -0.64911,-1.467557 -0.64911,-3.273778 0,-2.17311 0.81845,-3.58422 0.81844,-1.439332 2.17311,-2.088442 1.35466,-0.649111 3.04799,-0.649111 1.83445,0 3.10445,0.818444 1.29822,0.818444 1.91911,2.257776 0.64911,1.439332 0.64911,3.273775 0,2.201336 -0.79022,3.640666 -0.79023,1.41111 -2.14489,2.08844 -1.35467,0.64911 -3.10444,0.64911 z m 0.16933,-1.27 q 2.17311,0 3.24555,-1.35466 1.07245,-1.38289 1.07245,-3.781778 0,-2.314221 -1.04423,-3.697108 -1.04422,-1.382888 -3.1891,-1.382888 -2.22956,0 -3.302,1.382888 -1.07244,1.354665 -1.07244,3.697108 0,2.342438 1.04422,3.753548 1.07244,1.38289 3.24555,1.38289 z"
         style="font-style:normal;font-variant:normal;font-weight:300;font-stretch:normal;font-family:Dubai;-inkscape-font-specification:'Dubai Light'"
         id="path2011" />
      <path
         d="m 624.40693,91.681279 q 1.49578,0 2.51178,0.818444 1.04422,0.818444 1.04422,2.850442 v 8.748885 h -1.46756 v -8.156219 q 0,-1.608665 -0.56444,-2.285998 -0.53622,-0.705555 -1.89089,-0.705555 -1.66511,0 -4.03577,1.185332 0.14111,0.564444 0.14111,1.213555 v 8.748885 h -1.46755 v -8.156219 q 0,-1.072443 -0.254,-1.721554 -0.22578,-0.649111 -0.762,-0.959555 -0.508,-0.310444 -1.43934,-0.310444 -0.90311,0 -1.94733,0.338666 -1.016,0.310445 -1.94733,0.790222 v 10.018884 h -1.46755 V 91.963501 l 1.46755,-0.169333 v 1.15711 q 2.37067,-1.269999 4.26155,-1.269999 0.95956,0 1.74978,0.338666 0.79022,0.310445 1.27,1.100666 1.10066,-0.592666 2.37066,-1.015999 1.27,-0.423333 2.42711,-0.423333 z"
         style="font-style:normal;font-variant:normal;font-weight:300;font-stretch:normal;font-family:Dubai;-inkscape-font-specification:'Dubai Light'"
         id="path2013" />
    </g>
  </g>
</svg>
